<?xml version="1.0" encoding="utf-8"?>
<svg height="48px" viewBox="0 0 24 24" width="48px" fill="#5f6368" xmlns="http://www.w3.org/2000/svg">
  <defs/>
  <path d="M0 0h24v24H0V0z" fill="none"/>
  <path d="M 16.704 7.371 L 8.208 7.371 C 7.816 7.371 7.511 7.553 7.306 7.826 L 4.451 11.737 C 4.328 11.914 4.328 12.136 4.451 12.311 L 7.306 16.217 C 7.511 16.485 7.816 16.672 8.208 16.672 L 16.704 16.672 C 17.327 16.672 17.836 16.207 17.836 15.639 L 17.836 8.405 C 17.836 7.837 17.327 7.371 16.704 7.371 Z M 14.608 14.243 C 14.387 14.445 14.03 14.445 13.809 14.243 L 12.172 12.75 L 10.535 14.243 C 10.314 14.445 9.957 14.445 9.737 14.243 C 9.515 14.042 9.515 13.716 9.737 13.515 L 11.373 12.022 L 9.737 10.528 C 9.515 10.327 9.515 10.002 9.737 9.8 C 9.957 9.598 10.314 9.598 10.535 9.8 L 12.172 11.293 L 13.809 9.8 C 14.03 9.598 14.387 9.598 14.608 9.8 C 14.829 10.002 14.829 10.327 14.608 10.528 L 12.971 12.022 L 14.608 13.515 C 14.823 13.711 14.823 14.042 14.608 14.243 Z" style=""/>
</svg>