<?xml version="1.0" encoding="utf-8"?>
<svg height="48px" viewBox="0 0 24 24" width="48px" fill="#5f6368" xmlns="http://www.w3.org/2000/svg">
  <defs/>
  <path d="M0 0h24v24H0V0z" fill="none"/>
  <path d="M 18.399 11.032 L 7.839 11.032 L 12.452 6.866 C 12.82 6.533 12.82 5.987 12.452 5.653 C 12.083 5.322 11.487 5.322 11.119 5.653 L 4.889 11.279 C 4.519 11.613 4.519 12.149 4.889 12.483 L 11.119 18.109 C 11.487 18.44 12.083 18.44 12.452 18.109 C 12.82 17.775 12.82 17.237 12.452 16.905 L 7.839 12.738 L 18.399 12.738 C 18.918 12.738 19.344 12.354 19.344 11.884 C 19.344 11.415 18.918 11.032 18.399 11.032 Z" style=""/>
</svg>